<?xml version="1.0" encoding="UTF-8" standalone="no"?>
<svg
   width="429.52353"
   height="508.40219"
   viewBox="0 0 429.52353 508.40219"
   version="1.1"
   id="svg50"
   sodipodi:docname="logo.svg"
   xmlns:inkscape="http://www.inkscape.org/namespaces/inkscape"
   xmlns:sodipodi="http://sodipodi.sourceforge.net/DTD/sodipodi-0.dtd"
   xmlns:xlink="http://www.w3.org/1999/xlink"
   xmlns="http://www.w3.org/2000/svg"
   xmlns:svg="http://www.w3.org/2000/svg">
  <sodipodi:namedview
     id="namedview52"
     pagecolor="#ffffff"
     bordercolor="#000000"
     borderopacity="0.25"
     inkscape:showpageshadow="2"
     inkscape:pageopacity="0.0"
     inkscape:pagecheckerboard="0"
     inkscape:deskcolor="#d1d1d1"
     showgrid="false" />
  <defs
     id="defs34">
    <linearGradient
       id="c">
      <stop
         offset="0"
         style="stop-color:#e4707c;stop-opacity:0.11875;"
         id="stop2" />
      <stop
         offset=".5"
         style="stop-color:#43ec63;stop-opacity:0.80000001;"
         id="stop4" />
      <stop
         offset=".61012864"
         style="stop-color:#a191b1;stop-opacity:0.89803922;"
         id="stop6" />
      <stop
         offset=".76969457"
         style="stop-color:#d064d8;stop-opacity:0.94901961;"
         id="stop8" />
      <stop
         offset="1"
         style="stop-color:#af3728;stop-opacity:1;"
         id="stop10" />
    </linearGradient>
    <linearGradient
       xlink:href="#c"
       id="d"
       x1="264.27261"
       x2="1001.7961"
       y1="692.16895"
       y2="692.16895"
       gradientUnits="userSpaceOnUse" />
    <linearGradient
       xlink:href="#c"
       id="f"
       x1="264.27261"
       x2="1001.7961"
       y1="692.16895"
       y2="692.16895"
       gradientUnits="userSpaceOnUse" />
  </defs>
  <g
     style="display:inline;stroke:#191a24;stroke-width:3;stroke-dasharray:none;stroke-opacity:0.0448276"
     id="g48"
     transform="translate(-6.3839994,-12.709512)">
    <g
       style="display:inline;fill:url(#d);fill-opacity:1;stroke:#191a24;stroke-width:3;stroke-dasharray:none;stroke-opacity:0.0448276"
       transform="translate(-257.88861,-428.25836)"
       id="g40">
      <path
         d="m 469.42277,503.27949 c -7.12813,18.94262 -90.98145,162.94563 -77.05591,173.55749 42.50564,-47.20244 167.55993,-169.55899 212.36017,-161.70534 -37.12082,44.82043 -89.84002,52.57957 -218.42149,494.63066 2.52917,-35.66841 1.39251,-65.22711 -11.96825,-74.4123 -3.27123,-2.24889 184.65163,-391.44127 192.44583,-383.95307 -93.67748,23.20847 -168.87058,147.45589 -188.4508,162.88549 -12.11482,-21.67544 72.12276,-180.3005 72.83813,-185.18655 2.61934,-6.45661 -152.75953,96.87504 -233.42082,272.14016 0,0 16.99069,-29.46857 7.03722,-54.05344 C 516.92286,379.22502 180.85726,649.185 180.85726,649.185 c -15.99846,3.96849 114.43886,-117.05981 165.30745,-99.46709 0,0 14.4953,10.03521 17.84037,28.9906 0,0 79.36223,-75.63169 105.41769,-75.42902 z"
         style="display:inline;fill:url(#f);fill-opacity:1;fill-rule:evenodd;stroke:#191a24;stroke-width:3;stroke-dasharray:none;stroke-opacity:0.0448276"
         transform="translate(86.26703,-60.81118)"
         id="path38"
         inkscape:label="path38" />
    </g>
  </g>
</svg>
