<?xml version="1.0" encoding="UTF-8" standalone="no"?>
<!-- Created with Inkscape (http://www.inkscape.org/) -->

<svg
   width="92.938065mm"
   height="102.26984mm"
   viewBox="0 0 92.938065 102.26984"
   version="1.1"
   id="svg5"
   xmlns:inkscape="http://www.inkscape.org/namespaces/inkscape"
   xmlns:sodipodi="http://sodipodi.sourceforge.net/DTD/sodipodi-0.dtd"
   xmlns="http://www.w3.org/2000/svg"
   xmlns:svg="http://www.w3.org/2000/svg">
  <sodipodi:namedview
     id="namedview7"
     pagecolor="#ffffff"
     bordercolor="#000000"
     borderopacity="0.25"
     inkscape:showpageshadow="2"
     inkscape:pageopacity="0.0"
     inkscape:pagecheckerboard="0"
     inkscape:deskcolor="#d1d1d1"
     inkscape:document-units="mm"
     showgrid="false" />
  <defs
     id="defs2">
    <inkscape:path-effect
       effect="spiro"
       id="path-effect912"
       is_visible="true"
       lpeversion="1" />
  </defs>
  <g
     inkscape:label="Layer 1"
     inkscape:groupmode="layer"
     id="layer1"
     transform="translate(-53.234849,-38.255519)">
    <path
       style="fill:none;stroke:#000000;stroke-width:0.264583"
       d="m 57.446808,81.574469 c -2.586428,-4.298065 -4.00893,-9.28905 -4.077092,-14.304858 -0.06816,-5.015808 1.218194,-10.043604 3.686873,-14.410364 2.46868,-4.366761 6.113365,-8.061312 10.446178,-10.589098 4.332813,-2.527787 9.342666,-3.882341 14.358937,-3.882341 5.016271,0 10.026124,1.354554 14.358937,3.882341 4.332809,2.527786 7.977499,6.222337 10.446179,10.589098 2.46868,4.36676 3.75503,9.394556 3.68687,14.410364 -0.0682,5.015808 -1.49066,10.006793 -4.07709,14.304858 -3.24253,5.388362 -8.18856,9.583307 -11.489367,14.936168 -4.891904,7.933113 -5.691933,18.272103 -1.980273,26.821293 1.855831,4.27459 4.773621,8.08527 8.42539,10.98024 3.65177,2.89496 8.03126,4.8674 12.62187,5.66903 4.5906,0.80163 9.38309,0.42934 13.79007,-1.08551 4.40699,-1.51484 8.41838,-4.17038 11.52329,-7.6454 3.10491,-3.47502 5.29507,-7.76262 6.27638,-12.3182 0.98131,-4.55557 0.74986,-9.3685 -0.678,-13.80443 -0.57896,-1.79866 -1.35075,-3.53518 -2.29787,-5.170214"
       id="path910"
       inkscape:path-effect="#path-effect912"
       inkscape:original-d="m 57.446808,81.574469 c 16.468349,2.64e-4 32.553454,2.64e-4 48.829792,0 16.27633,-2.65e-4 -7.659316,9.95771 -11.489367,14.936168 -3.830052,4.978463 33.319417,5.744943 49.978727,8.617023 16.65931,2.87207 -1.53165,-3.44655 -2.29787,-5.170214" />
  </g>
</svg>
